<svg width="32" height="32" fill="#c2255c" viewBox="0 0 24 24" xmlns="http://www.w3.org/2000/svg">
  <path d="M16.24 21.998a1 1 0 0 1-1-1v-2.6a2.15 2.15 0 0 0-.54-1.66 1 1 0 0 1 .61-1.67c2.44-.29 4.69-1.07 4.69-5.3a4 4 0 0 0-.67-2.22 2.75 2.75 0 0 1-.41-2.06c.09-.465.09-.944 0-1.41a7.652 7.652 0 0 0-2.09 1.09 1 1 0 0 1-.84.15 10.15 10.15 0 0 0-5.52 0 1 1 0 0 1-.84-.15 7.4 7.4 0 0 0-2.11-1.09 3.52 3.52 0 0 0 0 1.41 2.84 2.84 0 0 1-.43 2.08 4.07 4.07 0 0 0-.67 2.23c0 3.89 1.88 4.93 4.7 5.29a1 1 0 0 1 .82.66 1 1 0 0 1-.21 1 2.06 2.06 0 0 0-.55 1.56v2.69a1 1 0 1 1-2 0v-.57a6 6 0 0 1-5.27-2.09 3.902 3.902 0 0 0-1.16-.88 1 1 0 1 1 .5-1.94c.769.28 1.456.748 2 1.36 1 1 2 1.88 3.9 1.52a3.89 3.89 0 0 1 .23-1.58c-2.06-.52-5-2-5-7a6 6 0 0 1 1-3.33.85.85 0 0 0 .13-.62 5.69 5.69 0 0 1 .33-3.21 1 1 0 0 1 .63-.57c.34-.1 1.56-.3 3.87 1.2 1.87-.45 3.82-.45 5.69 0 2.31-1.5 3.53-1.31 3.86-1.2a1 1 0 0 1 .63.57 5.71 5.71 0 0 1 .33 3.22.75.75 0 0 0 .11.57 6 6 0 0 1 1 3.34c0 5.07-2.92 6.54-5 7 .183.537.258 1.105.22 1.67v2.54a1 1 0 0 1-.94 1Z"></path>
</svg>